<svg xmlns="http://www.w3.org/2000/svg" width="958.2" height="217.4" viewBox="0 171.3 958.2 217.4" enable-background="new 0 171.3 958.2 217.4"><path fill="#7321A6" d="M208.3 207.5h-18.1v-9.1c0-5.4-3.6-9.1-9.1-9.1h-54.3v-18.1l-126.8 27.3v163l126.8 27.2v-9.1h54.3c5.4 0 9.1-3.6 9.1-9.1v-9.1h18.1c5.4 0 9.1-3.6 9.1-9.1v-135.7c0-5.4-3.7-9.1-9.1-9.1zm-108.7 117.8h-18.1l-27.2-54.3v54.3h-18.1v-90.6h18.1l27.2 54.3v-54.3h18.1v90.6zm108.7 27.2h-18.1v-36.2h18.1v36.2zm0-45.3h-18.1v-36.2h18.1v36.2zm0-45.3h-27.2v108.7h-54.3v-27.2h45.3v-9.1h-45.3v-18.1h45.3v-9.1h-45.3v-18.1h45.3v-9h-45.3v-18.1h45.3v-9.1h-45.3v-18.1h45.3v-9.1h-45.3v-27.2h54.3v18.1h27.2v45.4zm245.4-19.9c-13.6 0-22.6 5.4-29.9 17.2v-15.4h-14.5v90.6h14.5v-51.6c0-8.2 2.7-15.4 7.2-20.8s10.9-8.2 18.1-8.2c13.6 0 20.8 10 20.8 29v51.6h14.5v-54.4c0-12.7-2.7-21.7-8.2-28.1-5.3-6.3-12.5-9.9-22.5-9.9zm395.8-25.4l-14.5 5.4v21.7h-15.4v12.7h15.4v53.4c0 17.2 7.2 26.3 23.5 26.3 5.4 0 10-.9 13.6-2.7l-.9-12.7c-1.8 1.8-5.4 2.7-9.1 2.7-4.5 0-8.2-.9-10-3.6-1.8-2.7-2.7-6.3-2.7-12.7v-50.7h22.6v-12.7h-22.6v-27.1zm108.7 68.8c0-13.6-3.6-23.5-10-31.7s-15.4-11.7-27.1-11.7-21.7 4.5-29.9 13.6-11.8 19.9-11.8 34.4 3.6 26.3 10.9 34.4 17.2 12.7 29.9 12.7c13.6 0 23.5-3.6 31.7-9.1v-13.6c-8.2 6.3-18.1 10-28.1 10-9.1 0-16.3-2.7-21.7-8.2-5.4-5.4-8.2-13.6-8.2-23.5h64.3v-7.3zm-63.4-6.3c.9-8.2 4.5-14.5 9.1-19 4.5-4.5 10-7.2 17.2-7.2s11.8 1.8 16.3 7.2c4.4 5.2 6.2 11.3 6.3 19h-48.9zm-125.9-37.1c-13.6 0-25.4 4.5-33.5 12.7-8.2 8.2-12.7 19.9-12.7 35.3 0 13.6 4.5 25.4 11.8 33.5s18.1 12.7 31.7 12.7 25.4-4.5 33.5-12.7 12.7-19.9 12.7-34.4-4.5-26.3-11.8-34.4-18.1-12.7-31.7-12.7zm19.9 72.4c-5.4 6.3-12.7 9.1-21.7 9.1-9.1 0-16.3-2.7-21.7-9.1s-8.2-14.5-8.2-25.4 2.7-19.9 8.2-26.3c5.4-6.3 12.7-9.1 21.7-9.1 10 0 18.1 2.7 22.6 9.1 4.5 6.3 7.2 14.5 7.2 26.3.1 11.8-2.6 19.1-8.1 25.4zm-245.4-72.4c-11.8 0-21.7 4.5-29.9 13.6s-11.8 19.9-11.8 34.4 3.6 26.3 10.9 34.4c7.2 8.2 17.2 12.7 29.9 12.7 13.6 0 23.5-3.6 31.7-9.1v-13.6c-8.2 6.3-18.1 10-28.1 10-9.1 0-16.3-2.7-21.7-8.2-5.4-5.4-8.2-13.6-8.2-23.5h64.3v-7.2c0-13.6-3.6-23.5-10-31.7-6.3-8.2-15.3-11.8-27.1-11.8zm-27.2 37.1c.9-8.2 4.5-14.5 9.1-19 4.5-4.5 10-7.2 17.2-7.2 7.2 0 11.8 1.8 16.3 7.2 4.4 5.2 6.2 11.3 6.3 19h-48.9zm171.2 17.2c0 9.1 0 15.4.9 19-.9-.9-2.7-3.6-5.4-8.2l-63.4-99.6h-19v126.8h14.5v-92.3c0-9.1 0-14.5-.9-17.2h.9c.9 2.7 1.8 5.4 3.6 8.2l65.2 101.4h18.1v-126.9h-14.5v88.8zm-355-91.5c-19 0-34.4 6.3-45.3 18.1-10.9 12.7-16.3 28.1-16.3 48.9 0 19 5.4 34.4 16.3 46.2 10.9 11.8 25.4 18.1 43.5 18.1s33.5-6.3 44.4-18.1c10.9-11.8 16.3-28.1 16.3-48.9 0-19-5.4-34.4-16.3-46.2-10.9-11.7-25.4-18.1-42.6-18.1zm29.9 105.1c-8.2 9.1-19 13.6-32.6 13.6-12.7 0-23.5-4.5-31.7-14.5s-11.8-22.6-11.8-38c0-15.4 4.5-28.1 12.7-38 8.2-10 19-14.5 32.6-14.5s22.6 5.4 30.8 14.5 11.8 22.6 11.8 38.9-3.7 28.9-11.8 38z"/></svg>