<svg height="432pt" viewBox="-19 0 432 432.97587" width="432pt" xmlns="http://www.w3.org/2000/svg"><path d="m388.566406 196.902344h-53.910156c0-75.730469-61.394531-137.125-137.128906-137.128906v-53.910157c50.6875-.066406 99.320312 20.039063 135.160156 55.878907 35.84375 35.84375 55.949219 84.472656 55.878906 135.160156zm0 0" fill="#00efd1"/><path d="m326.007812 338.421875c-35.152343 31.953125-80.976562 49.613281-128.480468 49.511719v-53.910156c75.730468 0 137.125-61.386719 137.128906-137.121094h53.910156c.105469 50.691406-20.007812 99.335937-55.878906 135.152344-2.179688 2.179687-4.40625 4.300781-6.679688 6.367187zm0 0" fill="#00acea"/><path d="m197.527344 59.773438c75.730468.003906 137.121094 61.394531 137.121094 137.125 0 75.734374-61.394532 137.125-137.125 137.125-75.730469 0-137.121094-61.390626-137.125-137.121094.003906-75.730469 61.394531-137.125 137.128906-137.128906zm97.320312 137.128906c0-53.746094-43.570312-97.320313-97.320312-97.320313-53.746094 0-97.320313 43.574219-97.320313 97.320313 0 53.75 43.574219 97.320312 97.320313 97.320312 53.75.003906 97.320312-43.570312 97.320312-97.320312zm0 0" fill="#00ceb4"/><path d="m294.847656 196.902344c0 53.75-43.570312 97.320312-97.320312 97.320312-53.746094 0-97.320313-43.570312-97.320313-97.320312 0-53.746094 43.574219-97.320313 97.320313-97.320313 53.75 0 97.320312 43.574219 97.320312 97.320313zm0 0" fill="#fedb41"/><path d="m69.046875 338.421875c-39.933594-36.199219-62.664063-87.617187-62.558594-141.519531h53.910157c.003906 75.734375 61.398437 137.121094 137.128906 137.121094v53.910156c-47.503906.101562-93.328125-17.558594-128.480469-49.511719zm0 0" fill="#00efd1"/><path d="m197.527344 59.292969v.480469c-75.734375.003906-137.125 61.398437-137.128906 137.128906h-53.910157c-.066406-50.6875 20.039063-99.316406 55.878907-135.160156 35.84375-35.839844 84.472656-55.945313 135.160156-55.878907zm0 0" fill="#00acea"/><g fill="#083863"><path d="m394.566406 196.902344c-.0625-89.738282-60.75-168.097656-147.621094-190.605469-86.871093-22.503906-177.976562 16.527344-221.605468 94.949219-43.625 78.417968-28.757813 176.410156 36.171875 238.359375l-47.21875 84.367187c-1.082031 1.871094-1.074219 4.183594.023437 6.046875 1.097656 1.867188 3.113282 2.992188 5.277344 2.957031 2.164062-.039062 4.140625-1.242187 5.167969-3.144531l45.914062-82.035156c73.382813 61.511719 180.320313 61.511719 253.699219 0l45.914062 82.035156c1.03125 1.902344 3.003907 3.105469 5.167969 3.144531 2.164063.035157 4.179688-1.089843 5.277344-2.957031 1.097656-1.863281 1.105469-4.175781.023437-6.046875l-47.214843-84.367187c1.136719-1.085938 2.265625-2.191407 3.386719-3.308594 37.058593-36.902344 57.8125-87.097656 57.636718-139.394531zm-66.121094 131.148437c-1.308593 1.3125-2.640624 2.472657-3.976562 3.730469-.652344.09375-1.285156.296875-1.867188.601562-1.394531.765626-2.425781 2.0625-2.851562 3.597657-32.234375 28.328125-73.332031 44.539062-116.222656 45.84375v-41.9375c74.160156-3.074219 133.921875-62.503907 137-136.503907h41.941406c-1.410156 46.933594-20.742188 91.546876-54.023438 124.667969zm-130.917968-262.277343c72.304687 0 131.128906 58.824218 131.128906 131.128906 0 72.308594-58.824219 131.121094-131.128906 131.121094-72.304688 0-131.128906-58.820313-131.128906-131.121094 0-72.296875 58.824218-131.128906 131.128906-131.128906zm184.933594 125.609374h-41.933594c-2.875-74.519531-62.492188-134.339843-137-137.472656v-41.941406c97.636718 3.238281 175.960937 81.769531 178.933594 179.414062zm-315.851563-125.15625c33.167969-33.394531 77.871094-52.808593 124.917969-54.257812v41.941406c-74.503906 3.136719-134.117188 62.957032-136.996094 137.472656h-41.9375c1.207031-47.117187 20.558594-91.953124 54.015625-125.15625zm-54.011719 137.15625h41.933594c3.078125 74 62.839844 133.429688 137 136.503907v41.9375c-42.890625-1.316407-83.988281-17.535157-116.21875-45.867188-.425781-1.542969-1.453125-2.851562-2.855469-3.632812-.589843-.246094-1.21875-.390625-1.855469-.421875-35.40625-33.601563-56.230468-79.738282-58.003906-128.519532zm0 0"/><path d="m197.527344 300.222656c57.0625 0 103.320312-46.257812 103.320312-103.320312s-46.257812-103.320313-103.320312-103.320313-103.320313 46.257813-103.320313 103.320313c.066407 57.035156 46.285157 103.257812 103.320313 103.320312zm0-194.640625c50.433594 0 91.320312 40.886719 91.320312 91.320313 0 50.4375-40.886718 91.320312-91.320312 91.320312s-91.320313-40.882812-91.320313-91.320312c.058594-50.410156 40.910157-91.261719 91.320313-91.320313zm0 0"/><path d="m197.527344 237.875c-9.894532-.015625-17.910156-8.035156-17.917969-17.929688 0-3.316406-2.6875-6-6-6-3.316406 0-6 2.683594-6 6 .015625 14.207032 10.003906 26.453126 23.917969 29.324219v11.113281c0 3.316407 2.6875 6 6 6s6-2.683593 6-6v-11.113281c15.046875-3.082031 25.316406-17.054687 23.769531-32.335937-1.546875-15.277344-14.410156-26.90625-29.769531-26.910156-9.894532 0-17.917969-8.023438-17.917969-17.917969 0-9.898438 8.023437-17.921875 17.917969-17.921875 9.898437 0 17.921875 8.023437 17.921875 17.921875 0 3.3125 2.683593 6 6 6 3.3125 0 6-2.6875 6-6-.019531-14.207031-10.007813-26.449219-23.921875-29.316407v-8.40625c0-3.3125-2.6875-6-6-6s-6 2.6875-6 6v8.40625c-15.042969 3.082032-25.308594 17.050782-23.761719 32.328126 1.546875 15.277343 14.40625 26.902343 29.761719 26.90625 9.898437 0 17.925781 8.027343 17.925781 17.925781 0 9.898437-8.027344 17.925781-17.925781 17.925781zm0 0"/></g></svg>